<svg xmlns="http://www.w3.org/2000/svg" width="1200" height="600" viewBox="0 0 1200 600">
<style>
text{font-family:monospace;fill:#f0f6fc;font-size:24px}
.small{font-size:18px;fill:#8b949e}
.green{fill:#3fb950}
.bg{fill:#0d1117}
.win{fill:#161b22;stroke:#30363d;stroke-width:2}
</style>
<rect class="bg" width="1200" height="600"/>
<rect class="win" x="50" y="40" width="1100" height="520" rx="18"/>
<circle cx="82" cy="67" r="7" fill="#ff5f56"/>
<circle cx="106" cy="67" r="7" fill="#ffbd2e"/>
<circle cx="130" cy="67" r="7" fill="#27c93f"/>
<line x1="50" y1="90" x2="1150" y2="90" stroke="#30363d"/>
<text x="600" y="70" text-anchor="middle" class="small">zishan@github:~</text>

<text x="80" y="140" class="green">$ boot developer</text>
<text x="80" y="180">Initializing modules...</text>

<rect x="80" y="205" width="320" height="12" rx="6" fill="#21262d"/>
<rect x="80" y="205" width="320" height="12" rx="6" fill="#3fb950"/>

<text x="80" y="255" class="green">[ OK ] JavaScript</text>
<text x="80" y="290" class="green">[ OK ] TypeScript</text>
<text x="80" y="325" class="green">[ OK ] React</text>
<text x="80" y="360" class="green">[ OK ] Next.js</text>
<text x="80" y="395" class="green">[ OK ] Node.js</text>
<text x="80" y="430" class="green">[ OK ] Express</text>
<text x="80" y="465" class="green">Developer Loaded.</text>

<line x1="560" y1="120" x2="560" y2="520" stroke="#30363d"/>

<text x="610" y="160">$ whoami</text>
<text x="610" y="200" class="green">Zishan</text>
<text x="610" y="245">Full Stack Developer</text>
<text x="610" y="285" class="small">Building products people actually use.</text>

<rect x="760" y="320" width="300" height="160" rx="12" fill="#0d1117" stroke="#30363d"/>
<text x="910" y="375" text-anchor="middle" class="small">ASCII PORTRAIT</text>
<text x="910" y="405" text-anchor="middle" class="green">COMING SOON</text>

<text x="610" y="515" class="green">Status: Available for Freelance █</text>
</svg>
